<svg width="32" height="34" viewBox="0 0 32 34" fill="none" xmlns="http://www.w3.org/2000/svg">
<path d="M31.1623 11.7822C29.4786 5.04951 23.2488 0 16.0088 0C8.76877 0 2.70736 5.04951 0.855262 11.7822C-1.11275 20.3336 3.78204 34 14.3251 34H17.3558C27.5909 34 33.1827 22.0495 31.1623 11.7822ZM4.05434 21.8812C4.05434 14.6436 6.07481 11.6139 10.6209 11.6139H21.9018C26.953 11.6139 27.7948 15.1485 27.7948 21.8812C27.541 23.0594 26.8894 23.8363 26.6689 24.8462C24.1434 28.2125 20.5548 29.6238 16.0088 29.6238C10.9576 29.6238 7.49541 28.7174 5.1382 24.8462C4.96982 24.3412 4.05434 22.2178 4.05434 21.8812Z" fill="white"/>
<path d="M8.26234 20.6642C8.26234 19.4859 8.93583 16.2879 10.4512 15.9513C10.9563 15.783 11.1247 15.4463 11.1247 14.9414C11.1247 14.4364 10.6196 14.2681 10.1144 14.2681C6.91536 14.9414 6.57862 19.8226 6.41025 20.4958C6.41025 21.0008 6.74699 21.3374 7.25211 21.3374C7.9256 21.3374 8.26234 21.0008 8.26234 20.6642Z" fill="white"/>
</svg>
