<svg width="42" height="50" viewBox="0 0 42 50" fill="none" xmlns="http://www.w3.org/2000/svg">
<path fill-rule="evenodd" clip-rule="evenodd" d="M13.9147 44.4242L7.60353 38.9337V34.5237V30.1137L9.94543 28.0687C11.2335 26.9441 12.3566 26.0037 12.4414 25.9791C12.55 25.9476 12.5954 27.4827 12.5954 31.1909V36.4474L16.7663 40.0807C19.0603 42.079 20.9827 43.714 21.0385 43.714C21.0942 43.714 25.7299 39.7182 31.3401 34.8346C36.9502 29.9509 41.6061 25.9552 41.6867 25.9552C41.7833 25.9552 41.8333 27.0192 41.8333 29.0661C41.8333 31.5306 41.7908 32.2465 41.6285 32.5123C41.3969 32.8918 21.9115 49.8576 21.5807 49.9678C21.463 50.0069 21.11 50.011 20.7963 49.9767C20.2643 49.9186 19.8005 49.5444 13.9147 44.4242ZM17.8756 38.3855L14.8774 35.7889V32.6455V29.5021L17.9522 32.1684L21.0269 34.8346L21.7584 34.1515C22.1608 33.7759 22.8803 33.1053 23.3575 32.6613C23.8347 32.2173 24.8264 31.2812 25.5612 30.5811C26.296 29.8811 26.9526 29.3082 27.0201 29.3082C27.0877 29.3082 27.1431 30.7534 27.1431 32.5196V35.7311L24.121 38.3564C22.4588 39.8004 21.0483 40.9818 20.9865 40.9818C20.9246 40.9818 19.5248 39.8135 17.8756 38.3855ZM2.68143 34.6472L0.258389 32.5349L0.212467 29.7822L0.166679 27.0296L6.27342 21.7112C9.63208 18.7861 12.4287 16.3927 12.4878 16.3927C12.547 16.3927 12.5954 17.8852 12.5954 19.7093V23.0258L8.95847 26.2012L5.32155 29.3765V33.068C5.32155 35.0983 5.27277 36.7595 5.21301 36.7595C5.15326 36.7595 4.01411 35.8089 2.68143 34.6472ZM29.425 30.26V26.9895L33.062 23.8241L36.6989 20.6587V16.9806C36.6989 14.9578 36.7512 13.2745 36.8153 13.2401C36.9532 13.1659 41.4461 17.0773 41.6755 17.4712C41.7759 17.6438 41.8333 18.6855 41.8333 20.3348V22.9272L35.7548 28.2289C32.4117 31.1448 29.6199 33.5306 29.5507 33.5306C29.4814 33.5306 29.425 32.0632 29.425 30.26ZM17.8381 29.3404L14.8774 26.7646V20.4909V14.2173L17.9438 11.5494L21.0102 8.88151L24.0766 11.5494L27.1431 14.2173V20.2286V26.2399L26.4767 26.8737C22.7467 30.4216 21.1115 31.9162 20.9597 31.9162C20.8712 31.9162 19.4664 30.7571 17.8381 29.3404ZM29.425 18.7256V13.4829L25.2198 9.81528L21.0145 6.14753L10.7778 15.0578C5.14755 19.9585 0.461342 23.9682 0.364075 23.9682C0.092804 23.9682 0.113056 18.0236 0.386181 17.4754C0.501419 17.244 4.72224 13.4807 10.41 8.53788L20.2346 0H21.0098H21.7851L28.1722 5.55764L34.5595 11.1153V15.4467V19.7781L32.1795 21.8731C30.8705 23.0253 29.7153 23.9682 29.6123 23.9682C29.4607 23.9682 29.425 22.9712 29.425 18.7256Z" fill="#C0C2F5" fill-opacity="0.4"/>
</svg>
