<svg width="42" height="50" viewBox="0 0 42 50" fill="none" xmlns="http://www.w3.org/2000/svg">
<path fill-rule="evenodd" clip-rule="evenodd" d="M13.9148 44.4242L7.60369 38.9337V34.5237V30.1137L9.94558 28.0687C11.2336 26.9441 12.3568 26.0037 12.4415 25.9791C12.5502 25.9476 12.5955 27.4827 12.5955 31.1909V36.4474L16.7664 40.0807C19.0604 42.079 20.9828 43.714 21.0386 43.714C21.0944 43.714 25.7301 39.7182 31.3402 34.8346C36.9503 29.9509 41.6063 25.9552 41.6869 25.9552C41.7834 25.9552 41.8335 27.0192 41.8335 29.0661C41.8335 31.5306 41.791 32.2465 41.6287 32.5123C41.3971 32.8918 21.9116 49.8576 21.5809 49.9678C21.4632 50.0069 21.1102 50.011 20.7964 49.9767C20.2644 49.9186 19.8006 49.5444 13.9148 44.4242ZM17.8758 38.3855L14.8775 35.7889V32.6455V29.5021L17.9524 32.1684L21.0271 34.8346L21.7586 34.1515C22.1609 33.7759 22.8805 33.1053 23.3577 32.6613C23.8349 32.2173 24.8266 31.2812 25.5614 30.5811C26.2962 29.8811 26.9528 29.3082 27.0203 29.3082C27.0879 29.3082 27.1432 30.7534 27.1432 32.5196V35.7311L24.1211 38.3564C22.459 39.8004 21.0484 40.9818 20.9867 40.9818C20.9248 40.9818 19.5249 39.8135 17.8758 38.3855ZM2.68159 34.6472L0.258541 32.5349L0.21262 29.7822L0.166832 27.0296L6.27357 21.7112C9.63223 18.7861 12.4288 16.3927 12.488 16.3927C12.5472 16.3927 12.5955 17.8852 12.5955 19.7093V23.0258L8.95862 26.2012L5.3217 29.3765V33.068C5.3217 35.0983 5.27292 36.7595 5.21317 36.7595C5.15341 36.7595 4.01427 35.8089 2.68159 34.6472ZM29.4252 30.26V26.9895L33.0621 23.8241L36.699 20.6587V16.9806C36.699 14.9578 36.7514 13.2745 36.8154 13.2401C36.9533 13.1659 41.4463 17.0773 41.6756 17.4712C41.776 17.6438 41.8335 18.6855 41.8335 20.3348V22.9272L35.755 28.2289C32.4119 31.1448 29.62 33.5306 29.5508 33.5306C29.4815 33.5306 29.4252 32.0632 29.4252 30.26ZM17.8383 29.3404L14.8775 26.7646V20.4909V14.2173L17.9439 11.5494L21.0104 8.88151L24.0768 11.5494L27.1432 14.2173V20.2286V26.2399L26.4769 26.8737C22.7468 30.4216 21.1116 31.9162 20.9599 31.9162C20.8713 31.9162 19.4666 30.7571 17.8383 29.3404ZM29.4252 18.7256V13.4829L25.2199 9.81528L21.0146 6.14753L10.7779 15.0578C5.1477 19.9585 0.461497 23.9682 0.364227 23.9682C0.0929561 23.9682 0.113208 18.0236 0.386333 17.4754C0.501574 17.244 4.72239 13.4807 10.4101 8.53788L20.2348 0H21.0099H21.7852L28.1724 5.55764L34.5597 11.1153V15.4467V19.7781L32.1797 21.8731C30.8707 23.0253 29.7154 23.9682 29.6125 23.9682C29.4608 23.9682 29.4252 22.9712 29.4252 18.7256Z" fill="#C0C2F5"/>
</svg>
